# xmcd
#
# Track frame offsets:
#	150
#	15060
#	29072
#	48705
#	64226
#	80047
#	97098
#	109147
#	123873
#	138123
#	153489
#	166693
#	185663
#	201625
#	215250
#	230097
#	243714
#
# Disc length: 3650 seconds
# Revision: 2
# Processed by: cddbd v1.5.2PL0 Copyright (c) Steve Scherf et al.
# Submitted via: dBpowerAMP V12.0
#
DISCID=f50e4011
DTITLE=Pinchitos Caliente - AjAjAi
DYEAR=2004
DGENRE=Tex-Mex
TTITLE0=Guacamole
TTITLE1=La Mucura
TTITLE2=All You Do Is Bring Me Down
TTITLE3=Recuerda
TTITLE4=Uno Mas Cerveza
TTITLE5=We Were Dancing
TTITLE6=Morenita
TTITLE7=Days Of Desire
TTITLE8=Margarita
TTITLE9=Enselma
TTITLE10=Rowena (Juarez)
TTITLE11=Rosalita
TTITLE12=Hey Baby Que Paso
TTITLE13=San Antone
TTITLE14=Marina
TTITLE15=La Felicidad
TTITLE16=Prenda Del Alma
EXTD=
EXTT0=
EXTT1=
EXTT2=
EXTT3=
EXTT4=
EXTT5=
EXTT6=
EXTT7=
EXTT8=
EXTT9=
EXTT10=
EXTT11=
EXTT12=
EXTT13=
EXTT14=
EXTT15=
EXTT16=
PLAYORDER=
